# xmcd
#
# Track frame offsets: 
#        150
#        11742
#        22727
#        35695
#        48762
#        61662
#        75365
#        90770
#        104237
#        115960
#
# Disc length: 1743 seconds
#
# Revision: 0
# Processed by: cddbd v1.4PL0 Copyright (c) Steve Scherf et al.
# Submitted via: ExactAudioCopy v0.90b4
#
DISCID=6906cd0a
DTITLE=Snooky Prior - And the country blues
DYEAR=1997
DGENRE=Blues
TTITLE0=Miss Mattie Mae
TTITLE1=Stop Teasing me
TTITLE2=Mr Charlie's mule
TTITLE3=Mighty long time
TTITLE4=Can I be your friend
TTITLE5=Break it on down
TTITLE6=Dirty news
TTITLE7=Wrapped in sin
TTITLE8=Time waits on no one
TTITLE9=Call the doctor
EXTD=
EXTT0=Miss Mattie Mae
EXTT1=
EXTT2=
EXTT3=
EXTT4=
EXTT5=
EXTT6=
EXTT7=
EXTT8=
EXTT9=
PLAYORDER=
